<?xml version="1.0" encoding="UTF-8"?>
<svg width="24" height="24" viewBox="0 0 24 24" fill="none" xmlns="http://www.w3.org/2000/svg">
  <path d="M12 2C6.48 2 2 6.48 2 12C2 17.52 6.48 22 12 22C17.52 22 22 17.52 22 12C22 6.48 17.52 2 12 2ZM12 20C7.59 20 4 16.41 4 12C4 7.59 7.59 4 12 4C16.41 4 20 7.59 20 12C20 16.41 16.41 20 12 20Z" fill="#00cbdd" />
  <path d="M12 6.5C9.51 6.5 7.5 8.51 7.5 11C7.5 11.83 7.73 12.59 8.13 13.24C8.4 13.68 8.53 14.2 8.53 14.71V15.5C8.53 16.33 9.2 17 10.03 17H13.97C14.8 17 15.47 16.33 15.47 15.5V14.71C15.47 14.2 15.6 13.68 15.87 13.24C16.27 12.59 16.5 11.83 16.5 11C16.5 8.51 14.49 6.5 12 6.5ZM13.97 15.5H10.03V14.71C10.03 13.9 9.82 13.09 9.4 12.38C9.17 11.99 9.03 11.51 9.03 11C9.03 9.34 10.34 8.03 12 8.03C13.66 8.03 14.97 9.34 14.97 11C14.97 11.51 14.83 11.99 14.6 12.38C14.18 13.09 13.97 13.9 13.97 14.71V15.5Z" fill="#00cbdd" />
  <path d="M9 11.5H15" stroke="#00cbdd" strokeWidth="1.5" strokeLinecap="round" />
  <path d="M9 14H15" stroke="#00cbdd" strokeWidth="1.5" strokeLinecap="round" />
  <path d="M12 8V17" stroke="#00cbdd" strokeWidth="1.5" strokeLinecap="round" />
</svg>
