<svg width="123" height="102" viewBox="0 0 123 102" fill="none" xmlns="http://www.w3.org/2000/svg">
    <line x1="123" y1="51.5" x2="-4.37115e-08" y2="51.5" stroke="url(#paint0_linear_729_215)" />
    <line x1="81.5" y1="102" x2="81.5" y2="2.18557e-08" stroke="url(#paint1_linear_729_215)" />
    <g filter="url(#filter0_i_729_215)">
        <circle cx="82" cy="51" r="25" fill="#262626" />
    </g>
    
    <!-- Server with Shield -->
    <rect x="72" y="36" width="20" height="30" rx="2" fill="#00cbdd" opacity="0.3" />
    
    <!-- Server Lines -->
    <line x1="72" y1="42" x2="92" y2="42" stroke="#00cbdd" stroke-width="1" />
    <line x1="72" y1="48" x2="92" y2="48" stroke="#00cbdd" stroke-width="1" />
    <line x1="72" y1="54" x2="92" y2="54" stroke="#00cbdd" stroke-width="1" />
    <line x1="72" y1="60" x2="92" y2="60" stroke="#00cbdd" stroke-width="1" />
    
    <!-- Server Indicator Lights -->
    <circle cx="75" cy="39" r="1.5" fill="#00cbdd" />
    <circle cx="75" cy="45" r="1.5" fill="#00cbdd" />
    <circle cx="75" cy="51" r="1.5" fill="#00cbdd" />
    <circle cx="75" cy="57" r="1.5" fill="#00cbdd" />
    
    <!-- Uptime Shield -->
    <path d="M82 39L88 42V49C88 52.3137 85.3137 55 82 55C78.6863 55 76 52.3137 76 49V42L82 39Z" fill="#00cbdd" opacity="0.4" stroke="#00cbdd" stroke-width="1.5" />
    
    <!-- Checkmark -->
    <path d="M79 48L81 50L85 46" stroke="#FFFFFF" stroke-width="1.5" stroke-linecap="round" stroke-linejoin="round" />
    
    <!-- Percentage Sign -->
    <text x="81" y="63" fill="#00cbdd" font-family="monospace" font-size="7" font-weight="bold" text-anchor="middle">99.9%</text>
    
    <defs>
        <filter id="filter0_i_729_215" x="57" y="26" width="50" height="50"
            filterUnits="userSpaceOnUse" color-interpolation-filters="sRGB">
            <feFlood flood-opacity="0" result="BackgroundImageFix" />
            <feBlend mode="normal" in="SourceGraphic" in2="BackgroundImageFix" result="shape" />
            <feColorMatrix in="SourceAlpha" type="matrix"
                values="0 0 0 0 0 0 0 0 0 0 0 0 0 0 0 0 0 0 127 0" result="hardAlpha" />
            <feMorphology radius="2" operator="erode" in="SourceAlpha"
                result="effect1_innerShadow_729_215" />
            <feOffset />
            <feGaussianBlur stdDeviation="6.5" />
            <feComposite in2="hardAlpha" operator="arithmetic" k2="-1" k3="1" />
            <feColorMatrix type="matrix" values="0 0 0 0 1 0 0 0 0 1 0 0 0 0 1 0 0 0 0.08 0" />
            <feBlend mode="normal" in2="shape" result="effect1_innerShadow_729_215" />
        </filter>
        <linearGradient id="paint0_linear_729_215" x1="123" y1="50.5" x2="4.37115e-08" y2="50.5"
            gradientUnits="userSpaceOnUse">
            <stop stop-color="#00cbdd" stop-opacity="0.6" />
            <stop offset="1" stop-color="#00cbdd" stop-opacity="0" />
        </linearGradient>
        <linearGradient id="paint1_linear_729_215" x1="82.5" y1="102" x2="82.5" y2="-2.18557e-08"
            gradientUnits="userSpaceOnUse">
            <stop stop-color="#00cbdd" stop-opacity="0.4" />
            <stop offset="1" stop-color="#00cbdd" stop-opacity="0.6" />
        </linearGradient>
    </defs>
</svg>