<svg width="123" height="102" viewBox="0 0 123 102" fill="none" xmlns="http://www.w3.org/2000/svg">
    <line y1="50.5" x2="123" y2="50.5" stroke="url(#paint0_linear_729_219)" />
    <line x1="41.5" y1="102" x2="41.5" y2="2.18557e-08" stroke="url(#paint1_linear_729_219)" />
    <g filter="url(#filter0_i_729_219)">
        <circle cx="42" cy="51" r="25" fill="#262626" />
    </g>
    
    <!-- API/Data Transfer Icon -->
    <path d="M32 41H52V48H32V41Z" fill="#00cbdd" opacity="0.4" />
    <path d="M32 54H52V61H32V54Z" fill="#00cbdd" opacity="0.4" />
    
    <!-- Server -->
    <rect x="47" y="41" width="5" height="7" rx="1" fill="#00cbdd" opacity="0.9" />
    <rect x="47" y="54" width="5" height="7" rx="1" fill="#00cbdd" opacity="0.9" />
    
    <!-- Data Flow Arrows -->
    <path d="M39 49L39 43" stroke="#00cbdd" stroke-width="1.5" stroke-linecap="round" />
    <path d="M36 46L39 43L42 46" stroke="#00cbdd" stroke-width="1.5" stroke-linecap="round" stroke-linejoin="round" />
    
    <path d="M45 53L45 59" stroke="#00cbdd" stroke-width="1.5" stroke-linecap="round" />
    <path d="M48 56L45 59L42 56" stroke="#00cbdd" stroke-width="1.5" stroke-linecap="round" stroke-linejoin="round" />
    
    <!-- API Text -->
    <text x="33" y="46" fill="#FFFFFF" font-family="monospace" font-size="5" font-weight="bold">API</text>
    <text x="33" y="59" fill="#FFFFFF" font-family="monospace" font-size="5" font-weight="bold">API</text>
    
    <!-- Code Brackets -->
    <path d="M34 50L30 46L34 42" stroke="#00cbdd" stroke-width="1.5" stroke-linecap="round" stroke-linejoin="round" />
    <path d="M50 42L54 46L50 50" stroke="#00cbdd" stroke-width="1.5" stroke-linecap="round" stroke-linejoin="round" />
    
    <defs>
        <filter id="filter0_i_729_219" x="17" y="26" width="50" height="50"
            filterUnits="userSpaceOnUse" color-interpolation-filters="sRGB">
            <feFlood flood-opacity="0" result="BackgroundImageFix" />
            <feBlend mode="normal" in="SourceGraphic" in2="BackgroundImageFix" result="shape" />
            <feColorMatrix in="SourceAlpha" type="matrix"
                values="0 0 0 0 0 0 0 0 0 0 0 0 0 0 0 0 0 0 127 0" result="hardAlpha" />
            <feMorphology radius="2" operator="erode" in="SourceAlpha"
                result="effect1_innerShadow_729_219" />
            <feOffset />
            <feGaussianBlur stdDeviation="6.5" />
            <feComposite in2="hardAlpha" operator="arithmetic" k2="-1" k3="1" />
            <feColorMatrix type="matrix" values="0 0 0 0 1 0 0 0 0 1 0 0 0 0 1 0 0 0 0.08 0" />
            <feBlend mode="normal" in2="shape" result="effect1_innerShadow_729_219" />
        </filter>
        <linearGradient id="paint0_linear_729_219" x1="0" y1="51.5" x2="123" y2="51.5"
            gradientUnits="userSpaceOnUse">
            <stop stop-color="#00cbdd" stop-opacity="0.6" />
            <stop offset="1" stop-color="#00cbdd" stop-opacity="0" />
        </linearGradient>
        <linearGradient id="paint1_linear_729_219" x1="42.5" y1="102" x2="42.5" y2="-2.18557e-08"
            gradientUnits="userSpaceOnUse">
            <stop stop-color="#00cbdd" stop-opacity="0.4" />
            <stop offset="1" stop-color="#00cbdd" stop-opacity="0.6" />
        </linearGradient>
    </defs>
</svg>