<svg width="123" height="102" viewBox="0 0 123 102" fill="none" xmlns="http://www.w3.org/2000/svg">
    <line x1="81.5" y1="102" x2="81.5" y2="2.18557e-08" stroke="url(#paint0_linear_730_220)" />
    <line x1="123" y1="51.5" x2="-4.37115e-08" y2="51.5" stroke="url(#paint1_linear_730_220)" />
    <g filter="url(#filter0_i_730_220)">
        <circle cx="82" cy="51" r="25" fill="#262626" />
    </g>
    
    <!-- Neural Network Nodes -->
    <circle cx="72" cy="37" r="4" fill="#00cbdd" opacity="0.8" />
    <circle cx="92" cy="37" r="4" fill="#00cbdd" opacity="0.8" />
    <circle cx="65" cy="51" r="4" fill="#00cbdd" opacity="0.8" />
    <circle cx="82" cy="51" r="4" fill="#00cbdd" opacity="0.8" />
    <circle cx="99" cy="51" r="4" fill="#00cbdd" opacity="0.8" />
    <circle cx="72" cy="65" r="4" fill="#00cbdd" opacity="0.8" />
    <circle cx="92" cy="65" r="4" fill="#00cbdd" opacity="0.8" />
    
    <!-- Connection Lines -->
    <line x1="72" y1="37" x2="65" y2="51" stroke="#00cbdd" stroke-width="1.5" />
    <line x1="72" y1="37" x2="82" y2="51" stroke="#00cbdd" stroke-width="1.5" />
    <line x1="72" y1="37" x2="99" y2="51" stroke="#00cbdd" stroke-width="1.5" />
    <line x1="92" y1="37" x2="65" y2="51" stroke="#00cbdd" stroke-width="1.5" />
    <line x1="92" y1="37" x2="82" y2="51" stroke="#00cbdd" stroke-width="1.5" />
    <line x1="92" y1="37" x2="99" y2="51" stroke="#00cbdd" stroke-width="1.5" />
    <line x1="65" y1="51" x2="72" y2="65" stroke="#00cbdd" stroke-width="1.5" />
    <line x1="65" y1="51" x2="92" y2="65" stroke="#00cbdd" stroke-width="1.5" />
    <line x1="82" y1="51" x2="72" y2="65" stroke="#00cbdd" stroke-width="1.5" />
    <line x1="82" y1="51" x2="92" y2="65" stroke="#00cbdd" stroke-width="1.5" />
    <line x1="99" y1="51" x2="72" y2="65" stroke="#00cbdd" stroke-width="1.5" />
    <line x1="99" y1="51" x2="92" y2="65" stroke="#00cbdd" stroke-width="1.5" />
    
    <defs>
        <filter id="filter0_i_730_220" x="57" y="26" width="50" height="50"
            filterUnits="userSpaceOnUse" color-interpolation-filters="sRGB">
            <feFlood flood-opacity="0" result="BackgroundImageFix" />
            <feBlend mode="normal" in="SourceGraphic" in2="BackgroundImageFix" result="shape" />
            <feColorMatrix in="SourceAlpha" type="matrix"
                values="0 0 0 0 0 0 0 0 0 0 0 0 0 0 0 0 0 0 127 0" result="hardAlpha" />
            <feMorphology radius="2" operator="erode" in="SourceAlpha"
                result="effect1_innerShadow_730_220" />
            <feOffset />
            <feGaussianBlur stdDeviation="6.5" />
            <feComposite in2="hardAlpha" operator="arithmetic" k2="-1" k3="1" />
            <feColorMatrix type="matrix" values="0 0 0 0 1 0 0 0 0 1 0 0 0 0 1 0 0 0 0.08 0" />
            <feBlend mode="normal" in2="shape" result="effect1_innerShadow_730_220" />
        </filter>
        <linearGradient id="paint0_linear_730_220" x1="82.5" y1="102" x2="82.5" y2="-2.18557e-08"
            gradientUnits="userSpaceOnUse">
            <stop stop-color="#00cbdd" stop-opacity="0.4" />
            <stop offset="1" stop-color="#00cbdd" stop-opacity="0.6" />
        </linearGradient>
        <linearGradient id="paint1_linear_730_220" x1="123" y1="50.5" x2="4.37115e-08" y2="50.5"
            gradientUnits="userSpaceOnUse">
            <stop stop-color="#00cbdd" stop-opacity="0.6" />
            <stop offset="1" stop-color="#00cbdd" stop-opacity="0" />
        </linearGradient>
    </defs>
</svg>