<svg width="460" height="424" viewBox="0 0 460 424" fill="none" xmlns="http://www.w3.org/2000/svg">
  <g clip-path="url(#clip0_deploy_scale)">
    <rect width="424" height="424" rx="22" fill="#1F1F1F" fill-opacity="0.66"/>
    <g filter="url(#filter0_f_deploy_scale)">
      <circle cx="334" cy="340" r="3" fill="#00cbdd"/>
    </g>
    <g filter="url(#filter1_f_deploy_scale)">
      <circle cx="156" cy="228" r="3" fill="#00cbdd"/>
    </g>
    <g filter="url(#filter2_f_deploy_scale)">
      <circle cx="231" cy="92" r="3" fill="#00cbdd"/>
    </g>

    <!-- Deployment hub with connections -->
    <circle cx="212" cy="212" r="148.25" fill="white" fill-opacity="0.01" stroke="#00cbdd" stroke-width="1.5"/>
    <circle cx="212" cy="212" r="81.25" fill="white" fill-opacity="0.01" stroke="#00cbdd" stroke-width="1.5"/>
    <circle cx="211.5" cy="211.5" r="18.75" fill="white" fill-opacity="0.01" stroke="#00cbdd" stroke-width="1.5"/>
    
    <!-- Glowing circles -->
    <g filter="url(#filter3_f_deploy_scale)">
      <circle cx="212" cy="212" r="38" fill="#00cbdd" fill-opacity="0.73"/>
    </g>
    <g filter="url(#filter4_f_deploy_scale)">
      <circle cx="212" cy="213" r="99" fill="#00cbdd" fill-opacity="0.53"/>
    </g>

    <!-- Cloud deployment box -->
    <rect x="86.75" y="53.751" width="82" height="80" rx="40" transform="rotate(15 86.75 53.751)" fill="url(#paint0_linear_deploy_scale)"/>
    <path d="M110 105 L130 70" stroke="white" stroke-width="1.5" stroke-linecap="round"/>
    <path d="M115 85 C115 90, 125 90, 125 85" stroke="white" stroke-width="1.5" fill="transparent"/>
    <path d="M112 95 C112 100, 128 100, 128 95" stroke="white" stroke-width="1.5" fill="transparent"/>
    <path d="M108 105 C108 110, 132 110, 132 105" stroke="white" stroke-width="1.5" fill="transparent"/>

    <!-- API & Server -->
    <rect x="245.537" y="177.812" width="69.8138" height="68.111" rx="34.0555" transform="rotate(-15 245.537 177.812)" fill="url(#paint1_linear_deploy_scale)"/>
    <text x="280" y="215" font-family="monospace" font-size="10" fill="white">API</text>
    <path d="M275 195 L285 195" stroke="white" stroke-width="1.5" stroke-linecap="round"/>
    <path d="M270 205 L290 205" stroke="white" stroke-width="1.5" stroke-linecap="round"/>
    <path d="M275 215 L285 215" stroke="white" stroke-width="1.5" stroke-linecap="round"/>
    
    <!-- Multiple devices/scaling -->
    <g opacity="0.74">
      <rect x="169.408" y="339.646" width="50.338" height="49.1102" rx="24.5551" transform="rotate(-15 169.408 339.646)" fill="url(#paint2_linear_deploy_scale)"/>
      <rect x="180" y="348" width="20" height="10" rx="2" fill="white" opacity="0.7"/>
      <rect x="177" y="360" width="26" height="16" rx="2" fill="white" opacity="0.7"/>
    </g>

    <!-- Mobile device -->
    <rect x="389" y="178" width="70" height="70" rx="35" fill="#21201F"/>
    <rect x="389" y="178" width="70" height="70" rx="35" stroke="url(#paint3_linear_deploy_scale)" stroke-width="2"/>
    <rect x="414" y="193" width="20" height="40" rx="3" fill="#333333" stroke="#A3A3A3" stroke-width="1"/>
    <circle cx="424" cy="238" r="2" fill="#A3A3A3"/>
  </g>
  <defs>
    <filter id="filter0_f_deploy_scale" x="329" y="335" width="10" height="10" filterUnits="userSpaceOnUse" color-interpolation-filters="sRGB">
      <feFlood flood-opacity="0" result="BackgroundImageFix"/>
      <feBlend mode="normal" in="SourceGraphic" in2="BackgroundImageFix" result="shape"/>
      <feGaussianBlur stdDeviation="1" result="effect1_foregroundBlur_deploy_scale"/>
    </filter>
    <filter id="filter1_f_deploy_scale" x="152" y="224" width="8" height="8" filterUnits="userSpaceOnUse" color-interpolation-filters="sRGB">
      <feFlood flood-opacity="0" result="BackgroundImageFix"/>
      <feBlend mode="normal" in="SourceGraphic" in2="BackgroundImageFix" result="shape"/>
      <feGaussianBlur stdDeviation="0.5" result="effect1_foregroundBlur_deploy_scale"/>
    </filter>
    <filter id="filter2_f_deploy_scale" x="225" y="86" width="12" height="12" filterUnits="userSpaceOnUse" color-interpolation-filters="sRGB">
      <feFlood flood-opacity="0" result="BackgroundImageFix"/>
      <feBlend mode="normal" in="SourceGraphic" in2="BackgroundImageFix" result="shape"/>
      <feGaussianBlur stdDeviation="1.5" result="effect1_foregroundBlur_deploy_scale"/>
    </filter>
    <filter id="filter3_f_deploy_scale" x="85.6" y="85.6" width="252.8" height="252.8" filterUnits="userSpaceOnUse" color-interpolation-filters="sRGB">
      <feFlood flood-opacity="0" result="BackgroundImageFix"/>
      <feBlend mode="normal" in="SourceGraphic" in2="BackgroundImageFix" result="shape"/>
      <feGaussianBlur stdDeviation="44.2" result="effect1_foregroundBlur_deploy_scale"/>
    </filter>
    <filter id="filter4_f_deploy_scale" x="-115.9" y="-114.9" width="655.8" height="655.8" filterUnits="userSpaceOnUse" color-interpolation-filters="sRGB">
      <feFlood flood-opacity="0" result="BackgroundImageFix"/>
      <feBlend mode="normal" in="SourceGraphic" in2="BackgroundImageFix" result="shape"/>
      <feGaussianBlur stdDeviation="114.45" result="effect1_foregroundBlur_deploy_scale"/>
    </filter>
    <linearGradient id="paint0_linear_deploy_scale" x1="127.75" y1="133.751" x2="127.75" y2="53.751" gradientUnits="userSpaceOnUse">
      <stop stop-color="#0891b2"/>
      <stop offset="1" stop-color="#00cbdd"/>
    </linearGradient>
    <linearGradient id="paint1_linear_deploy_scale" x1="280.444" y1="245.923" x2="280.444" y2="177.812" gradientUnits="userSpaceOnUse">
      <stop stop-color="#0891b2"/>
      <stop offset="1" stop-color="#00cbdd"/>
    </linearGradient>
    <linearGradient id="paint2_linear_deploy_scale" x1="194.577" y1="388.756" x2="194.577" y2="339.646" gradientUnits="userSpaceOnUse">
      <stop stop-color="#0891b2"/>
      <stop offset="1" stop-color="#00cbdd"/>
    </linearGradient>
    <linearGradient id="paint3_linear_deploy_scale" x1="460" y1="213" x2="388" y2="213" gradientUnits="userSpaceOnUse">
      <stop stop-color="#0891b2"/>
      <stop offset="1" stop-color="#00cbdd"/>
    </linearGradient>
    <clipPath id="clip0_deploy_scale">
      <rect width="460" height="424" fill="white"/>
    </clipPath>
  </defs>
</svg> 